<?xml version="1.0" standalone="no"?>
<!DOCTYPE svg PUBLIC "-//W3C//DTD SVG 20010904//EN"
 "http://www.w3.org/TR/2001/REC-SVG-20010904/DTD/svg10.dtd">
<svg version="1.0" xmlns="http://www.w3.org/2000/svg"
 width="24.000000pt" height="24.000000pt" viewBox="0 0 24.000000 24.000000"
 preserveAspectRatio="xMidYMid meet">

<g transform="translate(0.000000,24.000000) scale(0.100000,-0.100000)"
fill="#000000" stroke="none">
<path d="M130 159 c0 -44 -5 -89 -10 -100 -13 -24 -46 -25 -59 -2 -11 21 3 53
24 53 8 0 15 9 15 20 0 26 -20 25 -54 -1 -52 -41 -22 -129 44 -129 47 0 70 33
70 100 l0 60 26 -10 c44 -17 64 16 22 35 -13 6 -27 20 -33 33 -5 12 -18 22
-27 22 -16 0 -18 -10 -18 -81z"/>
</g>
</svg>
